<svg width="587" height="58" viewBox="0 0 587 58" fill="none" xmlns="http://www.w3.org/2000/svg">
<mask id="path-1-inside-1_3626_25200" fill="white">
<path d="M573.461 6.83845e-06L573.608 0.00684278C573.95 0.0368492 574.276 0.169643 574.542 0.390632L585.892 9.83887L586.028 9.9668C586.286 10.2351 586.448 10.5813 586.489 10.9512L586.5 11.1377L586.5 56.3096L586.491 56.4824C586.405 57.3348 585.685 58 584.81 58L258.711 58C258.319 58 258 57.6815 258 57.2886C258 56.8957 258.319 56.5772 258.711 56.5772L584.81 56.5772C584.957 56.5772 585.077 56.4571 585.077 56.3096L585.077 11.1377C585.077 11.0585 585.041 10.9833 584.98 10.9326L573.632 1.48438C573.584 1.44453 573.523 1.42293 573.461 1.42286L244.711 1.42285C244.319 1.42285 244 1.10434 244 0.711429C244 0.318519 244.319 2.91347e-06 244.711 2.91815e-06L573.461 6.83845e-06ZM6.71485e-07 1.69043C4.0952e-07 0.757095 0.757097 9.02828e-09 1.69043 2.01582e-08L47.2886 5.63911e-07C47.6815 5.68596e-07 48 0.318516 48 0.711426C48 1.10434 47.6815 1.42285 47.2886 1.42285L1.69043 1.42285C1.54293 1.42285 1.42285 1.54293 1.42285 1.69043L1.42285 46.8623C1.42294 46.9415 1.45866 47.0167 1.51953 47.0674L12.8682 56.5156C12.9161 56.5555 12.9767 56.5771 13.0391 56.5771L187.289 56.5772C187.681 56.5772 188 56.8957 188 57.2886C188 57.6815 187.681 58 187.289 58L13.0391 58C12.6934 58 12.3572 57.8941 12.0752 57.6982L11.958 57.6084L0.608399 48.1611C0.222813 47.8401 9.12733e-05 47.364 1.32816e-07 46.8623L6.71485e-07 1.69043Z"/>
</mask>
<g clip-path="url(#paint0_angular_3626_25200_clip_path)" data-figma-skip-parse="true" mask="url(#path-1-inside-1_3626_25200)"><g transform="matrix(-0.431157 0.0135417 -0.0142072 -0.088807 327.534 35.5465)"><foreignObject x="-766.833" y="-766.833" width="1533.67" height="1533.67"><div xmlns="http://www.w3.org/1999/xhtml" style="background:conic-gradient(from 90deg,rgba(114, 76, 232, 1) 0deg,rgba(114, 76, 232, 1) 26.2739deg,rgba(230, 165, 165, 1) 140.266deg,rgba(195, 76, 82, 1) 182.112deg,rgba(114, 76, 232, 1) 357.335deg,rgba(114, 76, 232, 1) 360deg);height:100%;width:100%;opacity:1"></div></foreignObject></g></g><path d="M573.461 6.83845e-06L573.507 -0.998921L573.484 -0.999993L573.461 -0.999993L573.461 6.83845e-06ZM573.608 0.00684278L573.696 -0.989327L573.675 -0.991128L573.655 -0.992085L573.608 0.00684278ZM574.542 0.390632L575.182 -0.377915L575.182 -0.377995L574.542 0.390632ZM585.892 9.83887L586.575 9.10869L586.554 9.08888L586.531 9.07033L585.892 9.83887ZM586.028 9.9668L586.749 9.27374L586.731 9.25468L586.712 9.23662L586.028 9.9668ZM586.489 10.9512L587.488 10.8937L587.486 10.8671L587.483 10.8407L586.489 10.9512ZM586.5 11.1377L587.5 11.1377L587.5 11.1089L587.498 11.0802L586.5 11.1377ZM586.5 56.3096L587.499 56.3604L587.5 56.335L587.5 56.3096L586.5 56.3096ZM586.491 56.4824L587.486 56.5832L587.489 56.5583L587.49 56.5332L586.491 56.4824ZM584.81 58L584.81 59L584.81 58ZM584.81 56.5772L584.81 57.5772L584.81 56.5772ZM585.077 56.3096L586.077 56.3096L586.077 56.3096L585.077 56.3096ZM585.077 11.1377L586.077 11.1377L586.077 11.1369L585.077 11.1377ZM584.98 10.9326L584.341 11.7011L584.341 11.7012L584.98 10.9326ZM573.632 1.48438L574.272 0.715861L574.272 0.715835L573.632 1.48438ZM573.461 1.42286L573.462 0.422858L573.461 0.422858L573.461 1.42286ZM6.71485e-07 1.69043L1 1.69043L6.71485e-07 1.69043ZM1.69043 2.01582e-08L1.69043 -1L1.69043 -1L1.69043 2.01582e-08ZM1.69043 1.42285L1.69043 0.422852L1.69043 0.422852L1.69043 1.42285ZM1.42285 1.69043L2.42285 1.69043L1.42285 1.69043ZM1.42285 46.8623L0.422851 46.8623L0.422852 46.8635L1.42285 46.8623ZM1.51953 47.0674L2.15936 46.2989L2.15933 46.2988L1.51953 47.0674ZM12.8682 56.5156L12.2283 57.2841L12.2285 57.2843L12.8682 56.5156ZM13.0391 56.5771L13.0384 57.5771L13.0391 57.5771L13.0391 56.5771ZM13.0391 58L13.039 59L13.0391 59L13.0391 58ZM12.0752 57.6982L11.4668 58.4918L11.4854 58.5062L11.5048 58.5196L12.0752 57.6982ZM11.958 57.6084L11.3183 58.377L11.3337 58.3898L11.3496 58.402L11.958 57.6084ZM0.608399 48.1611L-0.0314205 48.9297L-0.0313564 48.9297L0.608399 48.1611ZM1.32816e-07 46.8623L-1 46.8623L-1 46.8625L1.32816e-07 46.8623ZM47.2886 1.42285L47.2886 2.42285L47.2886 1.42285ZM47.2886 5.63911e-07L47.2886 1L47.2886 5.63911e-07ZM244.711 2.91815e-06L244.711 1L244.711 2.91815e-06ZM244.711 1.42285L244.711 2.42285L244.711 1.42285ZM573.461 6.83845e-06L573.415 0.998935L573.562 1.00577L573.608 0.00684278L573.655 -0.992085L573.507 -0.998921L573.461 6.83845e-06ZM573.608 0.00684278L573.521 1.00301C573.662 1.01541 573.795 1.07012 573.902 1.15926L574.542 0.390632L575.182 -0.377995C574.758 -0.730836 574.238 -0.941712 573.696 -0.989327L573.608 0.00684278ZM574.542 0.390632L573.902 1.15918L585.252 10.6074L585.892 9.83887L586.531 9.07033L575.182 -0.377915L574.542 0.390632ZM585.892 9.83887L585.208 10.5691L585.345 10.697L586.028 9.9668L586.712 9.23662L586.575 9.10869L585.892 9.83887ZM586.028 9.9668L585.307 10.6599C585.412 10.7689 585.479 10.9102 585.495 11.0617L586.489 10.9512L587.483 10.8407C587.418 10.2524 587.16 9.70126 586.749 9.27374L586.028 9.9668ZM586.489 10.9512L585.491 11.0087L585.502 11.1952L586.5 11.1377L587.498 11.0802L587.488 10.8937L586.489 10.9512ZM586.5 11.1377L585.5 11.1377L585.5 56.3096L586.5 56.3096L587.5 56.3096L587.5 11.1377L586.5 11.1377ZM586.5 56.3096L585.501 56.2588L585.492 56.4316L586.491 56.4824L587.49 56.5332L587.499 56.3604L586.5 56.3096ZM586.491 56.4824L585.496 56.3816C585.461 56.7283 585.167 57 584.81 57L584.81 58L584.81 59C586.203 59 587.349 57.9413 587.486 56.5832L586.491 56.4824ZM584.81 58L584.81 57L258.711 57L258.711 58L258.711 59L584.81 59L584.81 58ZM258.711 56.5772L258.711 57.5772L584.81 57.5772L584.81 56.5772L584.81 55.5772L258.711 55.5772L258.711 56.5772ZM584.81 56.5772L584.81 57.5772C585.509 57.5772 586.077 57.0094 586.077 56.3096L585.077 56.3096L584.077 56.3096C584.077 55.9048 584.405 55.5772 584.81 55.5772L584.81 56.5772ZM585.077 56.3096L586.077 56.3096L586.077 11.1377L585.077 11.1377L584.077 11.1377L584.077 56.3096L585.077 56.3096ZM585.077 11.1377L586.077 11.1369C586.077 10.7571 585.906 10.4021 585.62 10.1641L584.98 10.9326L584.341 11.7012C584.177 11.5646 584.077 11.3599 584.077 11.1386L585.077 11.1377ZM584.98 10.9326L585.62 10.1641L574.272 0.715861L573.632 1.48438L572.992 2.2529L584.341 11.7011L584.98 10.9326ZM573.632 1.48438L574.272 0.715835C574.041 0.523891 573.753 0.423202 573.462 0.422858L573.461 1.42286L573.46 2.42286C573.293 2.42266 573.127 2.36516 572.992 2.25293L573.632 1.48438ZM573.461 1.42286L573.461 0.422858L244.711 0.422854L244.711 1.42285L244.711 2.42285L573.461 2.42286L573.461 1.42286ZM244.711 2.91815e-06L244.711 1L573.461 1.00001L573.461 6.83845e-06L573.461 -0.999993L244.711 -0.999997L244.711 2.91815e-06ZM6.71485e-07 1.69043L1 1.69043C1 1.30938 1.30938 1 1.69043 1L1.69043 2.01582e-08L1.69043 -1C0.204813 -1 -1 0.204811 -0.999999 1.69043L6.71485e-07 1.69043ZM1.69043 2.01582e-08L1.69043 1L47.2886 1L47.2886 5.63911e-07L47.2886 -0.999999L1.69043 -1L1.69043 2.01582e-08ZM47.2886 1.42285L47.2886 0.422852L1.69043 0.422852L1.69043 1.42285L1.69043 2.42285L47.2886 2.42285L47.2886 1.42285ZM1.69043 1.42285L1.69043 0.422852C0.99064 0.422852 0.422852 0.990654 0.422852 1.69043L1.42285 1.69043L2.42285 1.69043C2.42285 2.09521 2.09522 2.42285 1.69043 2.42285L1.69043 1.42285ZM1.42285 1.69043L0.422852 1.69043L0.422852 46.8623L1.42285 46.8623L2.42285 46.8623L2.42285 1.69043L1.42285 1.69043ZM1.42285 46.8623L0.422852 46.8635C0.423288 47.2428 0.593708 47.5978 0.879734 47.8359L1.51953 47.0674L2.15933 46.2988C2.32361 46.4356 2.4226 46.6402 2.42285 46.8612L1.42285 46.8623ZM1.51953 47.0674L0.879705 47.8359L12.2283 57.2841L12.8682 56.5156L13.508 55.7471L2.15936 46.2989L1.51953 47.0674ZM12.8682 56.5156L12.2285 57.2843C12.4587 57.4759 12.7463 57.5769 13.0384 57.5771L13.0391 56.5771L13.0398 55.5771C13.2071 55.5773 13.3734 55.6351 13.5078 55.747L12.8682 56.5156ZM13.0391 56.5771L13.0391 57.5771L187.289 57.5772L187.289 56.5772L187.289 55.5772L13.0391 55.5771L13.0391 56.5771ZM187.289 58L187.289 57L13.0391 57L13.0391 58L13.0391 59L187.289 59L187.289 58ZM13.0391 58L13.0392 57C12.8978 57 12.7605 56.9567 12.6456 56.8769L12.0752 57.6982L11.5048 58.5196C11.9539 58.8315 12.489 58.9999 13.039 59L13.0391 58ZM12.0752 57.6982L12.6836 56.9046L12.5664 56.8148L11.958 57.6084L11.3496 58.402L11.4668 58.4918L12.0752 57.6982ZM11.958 57.6084L12.5978 56.8398L1.24815 47.3926L0.608399 48.1611L-0.0313564 48.9297L11.3183 58.377L11.958 57.6084ZM0.608399 48.1611L1.24822 47.3926C1.09128 47.262 1.00004 47.0676 1 46.8621L1.32816e-07 46.8623L-1 46.8625C-0.999855 47.6605 -0.645651 48.4183 -0.0314205 48.9297L0.608399 48.1611ZM1.32816e-07 46.8623L1 46.8623L1 1.69043L6.71485e-07 1.69043L-0.999999 1.69043L-1 46.8623L1.32816e-07 46.8623ZM188 57.2886L187 57.2886C187 57.1292 187.129 57 187.289 57L187.289 58L187.289 59C188.234 59 189 58.2338 189 57.2886L188 57.2886ZM48 0.711426L47 0.711426C47 0.552052 47.1292 0.422852 47.2886 0.422852L47.2886 1.42285L47.2886 2.42285C48.2338 2.42285 49 1.65662 49 0.711426L48 0.711426ZM258 57.2886L259 57.2886C259 57.448 258.871 57.5772 258.711 57.5772L258.711 56.5772L258.711 55.5772C257.766 55.5772 257 56.3434 257 57.2886L258 57.2886ZM47.2886 5.63911e-07L47.2886 1C47.1292 1 47 0.870801 47 0.711426L48 0.711426L49 0.711426C49 -0.233768 48.2338 -0.999999 47.2886 -0.999999L47.2886 5.63911e-07ZM187.289 56.5772L187.289 57.5772C187.129 57.5772 187 57.4479 187 57.2886L188 57.2886L189 57.2886C189 56.3434 188.234 55.5772 187.289 55.5772L187.289 56.5772ZM244 0.711429L245 0.711429C245 0.870803 244.871 1 244.711 1L244.711 2.91815e-06L244.711 -0.999997C243.766 -0.999997 243 -0.233766 243 0.711429L244 0.711429ZM244.711 1.42285L244.711 0.422854C244.871 0.422854 245 0.552058 245 0.711429L244 0.711429L243 0.711429C243 1.65662 243.766 2.42285 244.711 2.42285L244.711 1.42285ZM258.711 58L258.711 57C258.871 57 259 57.1292 259 57.2886L258 57.2886L257 57.2886C257 58.2338 257.766 59 258.711 59L258.711 58Z" data-figma-gradient-fill="{&#34;type&#34;:&#34;GRADIENT_ANGULAR&#34;,&#34;stops&#34;:[{&#34;color&#34;:{&#34;r&#34;:0.44705882668495178,&#34;g&#34;:0.29803922772407532,&#34;b&#34;:0.90980392694473267,&#34;a&#34;:1.0},&#34;position&#34;:0.072983048856258392},{&#34;color&#34;:{&#34;r&#34;:0.90196079015731812,&#34;g&#34;:0.64705884456634521,&#34;b&#34;:0.64705884456634521,&#34;a&#34;:1.0},&#34;position&#34;:0.38962870836257935},{&#34;color&#34;:{&#34;r&#34;:0.76470589637756348,&#34;g&#34;:0.29803922772407532,&#34;b&#34;:0.32156863808631897,&#34;a&#34;:1.0},&#34;position&#34;:0.50586801767349243},{&#34;color&#34;:{&#34;r&#34;:0.44705882668495178,&#34;g&#34;:0.29803922772407532,&#34;b&#34;:0.90980392694473267,&#34;a&#34;:1.0},&#34;position&#34;:0.99259775876998901}],&#34;stopsVar&#34;:[],&#34;transform&#34;:{&#34;m00&#34;:-862.3132324218750,&#34;m01&#34;:-28.414363861083984,&#34;m02&#34;:772.89813232421875,&#34;m10&#34;:27.083360671997070,&#34;m11&#34;:-177.61408996582031,&#34;m12&#34;:110.81188201904297},&#34;opacity&#34;:1.0,&#34;blendMode&#34;:&#34;NORMAL&#34;,&#34;visible&#34;:true}" mask="url(#path-1-inside-1_3626_25200)"/>
<defs>
<clipPath id="paint0_angular_3626_25200_clip_path"><path d="M573.461 6.83845e-06L573.507 -0.998921L573.484 -0.999993L573.461 -0.999993L573.461 6.83845e-06ZM573.608 0.00684278L573.696 -0.989327L573.675 -0.991128L573.655 -0.992085L573.608 0.00684278ZM574.542 0.390632L575.182 -0.377915L575.182 -0.377995L574.542 0.390632ZM585.892 9.83887L586.575 9.10869L586.554 9.08888L586.531 9.07033L585.892 9.83887ZM586.028 9.9668L586.749 9.27374L586.731 9.25468L586.712 9.23662L586.028 9.9668ZM586.489 10.9512L587.488 10.8937L587.486 10.8671L587.483 10.8407L586.489 10.9512ZM586.5 11.1377L587.5 11.1377L587.5 11.1089L587.498 11.0802L586.5 11.1377ZM586.5 56.3096L587.499 56.3604L587.5 56.335L587.5 56.3096L586.5 56.3096ZM586.491 56.4824L587.486 56.5832L587.489 56.5583L587.49 56.5332L586.491 56.4824ZM584.81 58L584.81 59L584.81 58ZM584.81 56.5772L584.81 57.5772L584.81 56.5772ZM585.077 56.3096L586.077 56.3096L586.077 56.3096L585.077 56.3096ZM585.077 11.1377L586.077 11.1377L586.077 11.1369L585.077 11.1377ZM584.98 10.9326L584.341 11.7011L584.341 11.7012L584.98 10.9326ZM573.632 1.48438L574.272 0.715861L574.272 0.715835L573.632 1.48438ZM573.461 1.42286L573.462 0.422858L573.461 0.422858L573.461 1.42286ZM6.71485e-07 1.69043L1 1.69043L6.71485e-07 1.69043ZM1.69043 2.01582e-08L1.69043 -1L1.69043 -1L1.69043 2.01582e-08ZM1.69043 1.42285L1.69043 0.422852L1.69043 0.422852L1.69043 1.42285ZM1.42285 1.69043L2.42285 1.69043L1.42285 1.69043ZM1.42285 46.8623L0.422851 46.8623L0.422852 46.8635L1.42285 46.8623ZM1.51953 47.0674L2.15936 46.2989L2.15933 46.2988L1.51953 47.0674ZM12.8682 56.5156L12.2283 57.2841L12.2285 57.2843L12.8682 56.5156ZM13.0391 56.5771L13.0384 57.5771L13.0391 57.5771L13.0391 56.5771ZM13.0391 58L13.039 59L13.0391 59L13.0391 58ZM12.0752 57.6982L11.4668 58.4918L11.4854 58.5062L11.5048 58.5196L12.0752 57.6982ZM11.958 57.6084L11.3183 58.377L11.3337 58.3898L11.3496 58.402L11.958 57.6084ZM0.608399 48.1611L-0.0314205 48.9297L-0.0313564 48.9297L0.608399 48.1611ZM1.32816e-07 46.8623L-1 46.8623L-1 46.8625L1.32816e-07 46.8623ZM47.2886 1.42285L47.2886 2.42285L47.2886 1.42285ZM47.2886 5.63911e-07L47.2886 1L47.2886 5.63911e-07ZM244.711 2.91815e-06L244.711 1L244.711 2.91815e-06ZM244.711 1.42285L244.711 2.42285L244.711 1.42285ZM573.461 6.83845e-06L573.415 0.998935L573.562 1.00577L573.608 0.00684278L573.655 -0.992085L573.507 -0.998921L573.461 6.83845e-06ZM573.608 0.00684278L573.521 1.00301C573.662 1.01541 573.795 1.07012 573.902 1.15926L574.542 0.390632L575.182 -0.377995C574.758 -0.730836 574.238 -0.941712 573.696 -0.989327L573.608 0.00684278ZM574.542 0.390632L573.902 1.15918L585.252 10.6074L585.892 9.83887L586.531 9.07033L575.182 -0.377915L574.542 0.390632ZM585.892 9.83887L585.208 10.5691L585.345 10.697L586.028 9.9668L586.712 9.23662L586.575 9.10869L585.892 9.83887ZM586.028 9.9668L585.307 10.6599C585.412 10.7689 585.479 10.9102 585.495 11.0617L586.489 10.9512L587.483 10.8407C587.418 10.2524 587.16 9.70126 586.749 9.27374L586.028 9.9668ZM586.489 10.9512L585.491 11.0087L585.502 11.1952L586.5 11.1377L587.498 11.0802L587.488 10.8937L586.489 10.9512ZM586.5 11.1377L585.5 11.1377L585.5 56.3096L586.5 56.3096L587.5 56.3096L587.5 11.1377L586.5 11.1377ZM586.5 56.3096L585.501 56.2588L585.492 56.4316L586.491 56.4824L587.49 56.5332L587.499 56.3604L586.5 56.3096ZM586.491 56.4824L585.496 56.3816C585.461 56.7283 585.167 57 584.81 57L584.81 58L584.81 59C586.203 59 587.349 57.9413 587.486 56.5832L586.491 56.4824ZM584.81 58L584.81 57L258.711 57L258.711 58L258.711 59L584.81 59L584.81 58ZM258.711 56.5772L258.711 57.5772L584.81 57.5772L584.81 56.5772L584.81 55.5772L258.711 55.5772L258.711 56.5772ZM584.81 56.5772L584.81 57.5772C585.509 57.5772 586.077 57.0094 586.077 56.3096L585.077 56.3096L584.077 56.3096C584.077 55.9048 584.405 55.5772 584.81 55.5772L584.81 56.5772ZM585.077 56.3096L586.077 56.3096L586.077 11.1377L585.077 11.1377L584.077 11.1377L584.077 56.3096L585.077 56.3096ZM585.077 11.1377L586.077 11.1369C586.077 10.7571 585.906 10.4021 585.62 10.1641L584.98 10.9326L584.341 11.7012C584.177 11.5646 584.077 11.3599 584.077 11.1386L585.077 11.1377ZM584.98 10.9326L585.62 10.1641L574.272 0.715861L573.632 1.48438L572.992 2.2529L584.341 11.7011L584.98 10.9326ZM573.632 1.48438L574.272 0.715835C574.041 0.523891 573.753 0.423202 573.462 0.422858L573.461 1.42286L573.46 2.42286C573.293 2.42266 573.127 2.36516 572.992 2.25293L573.632 1.48438ZM573.461 1.42286L573.461 0.422858L244.711 0.422854L244.711 1.42285L244.711 2.42285L573.461 2.42286L573.461 1.42286ZM244.711 2.91815e-06L244.711 1L573.461 1.00001L573.461 6.83845e-06L573.461 -0.999993L244.711 -0.999997L244.711 2.91815e-06ZM6.71485e-07 1.69043L1 1.69043C1 1.30938 1.30938 1 1.69043 1L1.69043 2.01582e-08L1.69043 -1C0.204813 -1 -1 0.204811 -0.999999 1.69043L6.71485e-07 1.69043ZM1.69043 2.01582e-08L1.69043 1L47.2886 1L47.2886 5.63911e-07L47.2886 -0.999999L1.69043 -1L1.69043 2.01582e-08ZM47.2886 1.42285L47.2886 0.422852L1.69043 0.422852L1.69043 1.42285L1.69043 2.42285L47.2886 2.42285L47.2886 1.42285ZM1.69043 1.42285L1.69043 0.422852C0.99064 0.422852 0.422852 0.990654 0.422852 1.69043L1.42285 1.69043L2.42285 1.69043C2.42285 2.09521 2.09522 2.42285 1.69043 2.42285L1.69043 1.42285ZM1.42285 1.69043L0.422852 1.69043L0.422852 46.8623L1.42285 46.8623L2.42285 46.8623L2.42285 1.69043L1.42285 1.69043ZM1.42285 46.8623L0.422852 46.8635C0.423288 47.2428 0.593708 47.5978 0.879734 47.8359L1.51953 47.0674L2.15933 46.2988C2.32361 46.4356 2.4226 46.6402 2.42285 46.8612L1.42285 46.8623ZM1.51953 47.0674L0.879705 47.8359L12.2283 57.2841L12.8682 56.5156L13.508 55.7471L2.15936 46.2989L1.51953 47.0674ZM12.8682 56.5156L12.2285 57.2843C12.4587 57.4759 12.7463 57.5769 13.0384 57.5771L13.0391 56.5771L13.0398 55.5771C13.2071 55.5773 13.3734 55.6351 13.5078 55.747L12.8682 56.5156ZM13.0391 56.5771L13.0391 57.5771L187.289 57.5772L187.289 56.5772L187.289 55.5772L13.0391 55.5771L13.0391 56.5771ZM187.289 58L187.289 57L13.0391 57L13.0391 58L13.0391 59L187.289 59L187.289 58ZM13.0391 58L13.0392 57C12.8978 57 12.7605 56.9567 12.6456 56.8769L12.0752 57.6982L11.5048 58.5196C11.9539 58.8315 12.489 58.9999 13.039 59L13.0391 58ZM12.0752 57.6982L12.6836 56.9046L12.5664 56.8148L11.958 57.6084L11.3496 58.402L11.4668 58.4918L12.0752 57.6982ZM11.958 57.6084L12.5978 56.8398L1.24815 47.3926L0.608399 48.1611L-0.0313564 48.9297L11.3183 58.377L11.958 57.6084ZM0.608399 48.1611L1.24822 47.3926C1.09128 47.262 1.00004 47.0676 1 46.8621L1.32816e-07 46.8623L-1 46.8625C-0.999855 47.6605 -0.645651 48.4183 -0.0314205 48.9297L0.608399 48.1611ZM1.32816e-07 46.8623L1 46.8623L1 1.69043L6.71485e-07 1.69043L-0.999999 1.69043L-1 46.8623L1.32816e-07 46.8623ZM188 57.2886L187 57.2886C187 57.1292 187.129 57 187.289 57L187.289 58L187.289 59C188.234 59 189 58.2338 189 57.2886L188 57.2886ZM48 0.711426L47 0.711426C47 0.552052 47.1292 0.422852 47.2886 0.422852L47.2886 1.42285L47.2886 2.42285C48.2338 2.42285 49 1.65662 49 0.711426L48 0.711426ZM258 57.2886L259 57.2886C259 57.448 258.871 57.5772 258.711 57.5772L258.711 56.5772L258.711 55.5772C257.766 55.5772 257 56.3434 257 57.2886L258 57.2886ZM47.2886 5.63911e-07L47.2886 1C47.1292 1 47 0.870801 47 0.711426L48 0.711426L49 0.711426C49 -0.233768 48.2338 -0.999999 47.2886 -0.999999L47.2886 5.63911e-07ZM187.289 56.5772L187.289 57.5772C187.129 57.5772 187 57.4479 187 57.2886L188 57.2886L189 57.2886C189 56.3434 188.234 55.5772 187.289 55.5772L187.289 56.5772ZM244 0.711429L245 0.711429C245 0.870803 244.871 1 244.711 1L244.711 2.91815e-06L244.711 -0.999997C243.766 -0.999997 243 -0.233766 243 0.711429L244 0.711429ZM244.711 1.42285L244.711 0.422854C244.871 0.422854 245 0.552058 245 0.711429L244 0.711429L243 0.711429C243 1.65662 243.766 2.42285 244.711 2.42285L244.711 1.42285ZM258.711 58L258.711 57C258.871 57 259 57.1292 259 57.2886L258 57.2886L257 57.2886C257 58.2338 257.766 59 258.711 59L258.711 58Z" mask="url(#path-1-inside-1_3626_25200)"/></clipPath></defs>
</svg>
