<svg width="254" height="58" viewBox="0 0 254 58" fill="none" xmlns="http://www.w3.org/2000/svg">
<mask id="path-1-inside-1_3_202" fill="white">
<path d="M253.392 9.83887L253.528 9.9668C253.786 10.2351 253.948 10.5813 253.989 10.9512L254 11.1377L254 51.2886C254 51.6815 253.681 52 253.289 52C252.896 52 252.577 51.6815 252.577 51.2886L252.577 11.1377C252.577 11.0585 252.541 10.9833 252.48 10.9326L244.256 4.08543C244.094 3.95025 244 3.7499 244 3.53862C244 2.93555 244.703 2.60595 245.167 2.9918L253.392 9.83887ZM6.71485e-07 1.69043C4.0952e-07 0.757096 0.757097 1.71151e-07 1.69043 2.01582e-08L47.2886 5.63911e-07C47.6815 5.68596e-07 48 0.318517 48 0.711426C48 1.10434 47.6815 1.42285 47.2886 1.42285L1.69043 1.42285C1.54293 1.42285 1.42285 1.54293 1.42285 1.69043L1.42285 46.8623C1.42294 46.9415 1.45866 47.0167 1.51953 47.0674L12.8682 56.5156C12.9161 56.5555 12.9767 56.5771 13.0391 56.5771L187.289 56.5772C187.681 56.5772 188 56.8957 188 57.2886C188 57.6815 187.681 58 187.289 58L13.0391 58C12.6934 58 12.3572 57.8941 12.0752 57.6982L11.958 57.6084L0.608399 48.1611C0.222813 47.8401 9.11761e-05 47.364 1.32816e-07 46.8623L6.71485e-07 1.69043Z"/>
</mask>
<path d="M253.392 9.83887L254.075 9.10868L254.054 9.08888L254.031 9.07033L253.392 9.83887ZM253.528 9.9668L254.249 9.27374L254.231 9.25468L254.212 9.23661L253.528 9.9668ZM253.989 10.9512L254.988 10.8937L254.986 10.8671L254.983 10.8407L253.989 10.9512ZM254 11.1377L255 11.1377L255 11.1089L254.998 11.0802L254 11.1377ZM252.577 11.1377L253.577 11.1377L253.577 11.1368L252.577 11.1377ZM252.48 10.9326L251.841 11.7011L251.841 11.7012L252.48 10.9326ZM6.71485e-07 1.69043L1 1.69043L1 1.69043L6.71485e-07 1.69043ZM1.69043 2.01582e-08L1.69043 -1L1.69043 -1L1.69043 2.01582e-08ZM1.69043 1.42285L1.69043 0.422852L1.69043 0.422852L1.69043 1.42285ZM1.42285 1.69043L2.42285 1.69043L2.42285 1.69043L1.42285 1.69043ZM1.42285 46.8623L0.422851 46.8623L0.422852 46.8635L1.42285 46.8623ZM1.51953 47.0674L2.15936 46.2989L2.15933 46.2988L1.51953 47.0674ZM12.8682 56.5156L12.2283 57.2841L12.2285 57.2843L12.8682 56.5156ZM13.0391 56.5771L13.0384 57.5771L13.0391 57.5771L13.0391 56.5771ZM13.0391 58L13.039 59L13.0391 59L13.0391 58ZM12.0752 57.6982L11.4668 58.4918L11.4854 58.5062L11.5048 58.5196L12.0752 57.6982ZM11.958 57.6084L11.3183 58.377L11.3337 58.3898L11.3496 58.402L11.958 57.6084ZM0.608399 48.1611L-0.0314199 48.9297L-0.0313564 48.9297L0.608399 48.1611ZM1.32816e-07 46.8623L-1 46.8623L-1 46.8625L1.32816e-07 46.8623ZM244.256 4.08543L243.616 4.85394L244.256 4.08543ZM245.167 2.9918L244.527 3.76034L245.167 2.9918ZM253.392 9.83887L252.708 10.5691L252.845 10.697L253.528 9.9668L254.212 9.23661L254.075 9.10868L253.392 9.83887ZM253.528 9.9668L252.807 10.6599C252.912 10.7689 252.979 10.9101 252.995 11.0617L253.989 10.9512L254.983 10.8407C254.918 10.2524 254.66 9.70126 254.249 9.27374L253.528 9.9668ZM253.989 10.9512L252.991 11.0087L253.002 11.1952L254 11.1377L254.998 11.0802L254.988 10.8937L253.989 10.9512ZM254 11.1377L253 11.1377L253 51.2886L254 51.2886L255 51.2886L255 11.1377L254 11.1377ZM252.577 51.2886L253.577 51.2886L253.577 11.1377L252.577 11.1377L251.577 11.1377L251.577 51.2886L252.577 51.2886ZM252.577 11.1377L253.577 11.1368C253.577 10.7571 253.406 10.4021 253.12 10.1641L252.48 10.9326L251.841 11.7012C251.677 11.5646 251.577 11.3599 251.577 11.1386L252.577 11.1377ZM252.48 10.9326L253.12 10.1641L244.896 3.31691L244.256 4.08543L243.616 4.85394L251.841 11.7011L252.48 10.9326ZM245.167 2.9918L244.527 3.76034L252.752 10.6074L253.392 9.83887L254.031 9.07033L245.807 2.22326L245.167 2.9918ZM6.71485e-07 1.69043L1 1.69043C1 1.30938 1.30938 1 1.69043 1L1.69043 2.01582e-08L1.69043 -1C0.204813 -1 -1 0.204811 -0.999999 1.69043L6.71485e-07 1.69043ZM1.69043 2.01582e-08L1.69043 1L47.2886 1L47.2886 5.63911e-07L47.2886 -0.999999L1.69043 -1L1.69043 2.01582e-08ZM47.2886 1.42285L47.2886 0.422852L1.69043 0.422852L1.69043 1.42285L1.69043 2.42285L47.2886 2.42285L47.2886 1.42285ZM1.69043 1.42285L1.69043 0.422852C0.990642 0.422852 0.422852 0.990653 0.422852 1.69043L1.42285 1.69043L2.42285 1.69043C2.42285 2.09521 2.09522 2.42285 1.69043 2.42285L1.69043 1.42285ZM1.42285 1.69043L0.422852 1.69043L0.422852 46.8623L1.42285 46.8623L2.42285 46.8623L2.42285 1.69043L1.42285 1.69043ZM1.42285 46.8623L0.422852 46.8635C0.423288 47.2428 0.593709 47.5978 0.879734 47.8359L1.51953 47.0674L2.15933 46.2988C2.32361 46.4356 2.4226 46.6402 2.42285 46.8612L1.42285 46.8623ZM1.51953 47.0674L0.879705 47.8359L12.2283 57.2841L12.8682 56.5156L13.508 55.7471L2.15936 46.2989L1.51953 47.0674ZM12.8682 56.5156L12.2285 57.2843C12.4588 57.4759 12.7463 57.577 13.0384 57.5771L13.0391 56.5771L13.0397 55.5771C13.2071 55.5773 13.3734 55.6351 13.5078 55.747L12.8682 56.5156ZM13.0391 56.5771L13.0391 57.5771L187.289 57.5772L187.289 56.5772L187.289 55.5772L13.0391 55.5771L13.0391 56.5771ZM187.289 58L187.289 57L13.0391 57L13.0391 58L13.0391 59L187.289 59L187.289 58ZM13.0391 58L13.0392 57C12.8978 57 12.7605 56.9567 12.6456 56.8769L12.0752 57.6982L11.5048 58.5196C11.9539 58.8315 12.489 58.9999 13.039 59L13.0391 58ZM12.0752 57.6982L12.6836 56.9046L12.5664 56.8148L11.958 57.6084L11.3496 58.402L11.4668 58.4918L12.0752 57.6982ZM11.958 57.6084L12.5978 56.8398L1.24815 47.3926L0.608399 48.1611L-0.0313564 48.9297L11.3183 58.377L11.958 57.6084ZM0.608399 48.1611L1.24822 47.3926C1.09128 47.262 1.00004 47.0676 1 46.8621L1.32816e-07 46.8623L-1 46.8625C-0.999855 47.6605 -0.645652 48.4183 -0.0314199 48.9297L0.608399 48.1611ZM1.32816e-07 46.8623L1 46.8623L1 1.69043L6.71485e-07 1.69043L-0.999999 1.69043L-1 46.8623L1.32816e-07 46.8623ZM188 57.2886L187 57.2886C187 57.1292 187.129 57 187.289 57L187.289 58L187.289 59C188.234 59 189 58.2338 189 57.2886L188 57.2886ZM48 0.711426L47 0.711426C47 0.552051 47.1292 0.422852 47.2886 0.422852L47.2886 1.42285L47.2886 2.42285C48.2338 2.42285 49 1.65662 49 0.711426L48 0.711426ZM47.2886 5.63911e-07L47.2886 1C47.1292 1 47 0.870801 47 0.711426L48 0.711426L49 0.711426C49 -0.233767 48.2338 -0.999999 47.2886 -0.999999L47.2886 5.63911e-07ZM244.256 4.08543L244.896 3.31691C244.962 3.37173 245 3.45296 245 3.53862L244 3.53862L243 3.53862C243 4.04684 243.226 4.52876 243.616 4.85394L244.256 4.08543ZM253.289 52L253.289 51C253.448 51 253.577 51.1292 253.577 51.2886L252.577 51.2886L251.577 51.2886C251.577 52.2338 252.343 53 253.289 53L253.289 52ZM187.289 56.5772L187.289 57.5772C187.129 57.5772 187 57.4479 187 57.2886L188 57.2886L189 57.2886C189 56.3434 188.234 55.5772 187.289 55.5772L187.289 56.5772ZM244 3.53862L245 3.53862C245 3.78315 244.715 3.91679 244.527 3.76034L245.167 2.9918L245.807 2.22326C244.692 1.29511 243 2.08794 243 3.53862L244 3.53862ZM254 51.2886L253 51.2886C253 51.1292 253.129 51 253.289 51L253.289 52L253.289 53C254.234 53 255 52.2338 255 51.2886L254 51.2886Z" fill="url(#paint0_linear_3_202)" mask="url(#path-1-inside-1_3_202)"/>
<defs>
<linearGradient id="paint0_linear_3_202" x1="328.572" y1="20.1078" x2="-45.2724" y2="34.741" gradientUnits="userSpaceOnUse">
<stop offset="0.072983" stop-color="#FFE01A"/>
<stop offset="0.992598" stop-color="#FABA3E"/>
</linearGradient>
</defs>
</svg>
