<svg width="90" height="41" viewBox="0 0 90 41" fill="none" xmlns="http://www.w3.org/2000/svg">
<mask id="path-1-inside-1_6_465" fill="white">
<path d="M89.8604 0.582031C89.8604 0.903478 89.5998 1.16406 89.2783 1.16406H8.85352C8.7967 1.16411 8.7419 1.18597 8.70117 1.22559L1.22949 8.50684C1.18757 8.54791 1.16406 8.60437 1.16406 8.66309V39.4805C1.16406 39.8019 0.903478 40.0625 0.582031 40.0625C0.260584 40.0625 0 39.8019 0 39.4805V8.66309C0 8.33677 0.115395 8.02217 0.323242 7.77441L0.417969 7.67285L7.88867 0.392578C8.14674 0.141097 8.49319 4.16475e-05 8.85352 0H89.2783C89.5998 0 89.8604 0.260584 89.8604 0.582031Z"/>
</mask>
<path d="M8.85352 1.16406L8.85352 0.475991L8.85298 0.475991L8.85352 1.16406ZM8.70117 1.22559L8.22146 0.73231L8.22095 0.732807L8.70117 1.22559ZM1.22949 8.50684L0.74927 8.01405L0.74795 8.01535L1.22949 8.50684ZM1.16406 8.66309H0.475991H1.16406ZM0.323242 7.77441L-0.179937 7.3051L-0.192275 7.31833L-0.2039 7.33219L0.323242 7.77441ZM0.417969 7.67285L-0.0622504 7.18007L-0.0740105 7.19153L-0.0852106 7.20354L0.417969 7.67285ZM7.88867 0.392578L7.40846 -0.100208L7.40845 -0.100202L7.88867 0.392578ZM8.85352 0L8.85352 -0.688072L8.85344 -0.688072L8.85352 0ZM89.2783 1.16406V0.475991H8.85352V1.16406V1.85213H89.2783V1.16406ZM8.85352 1.16406L8.85298 0.475991C8.62055 0.476171 8.39289 0.565593 8.22146 0.73231L8.70117 1.22559L9.18088 1.71886C9.09091 1.80636 8.97285 1.85204 8.85405 1.85213L8.85352 1.16406ZM8.70117 1.22559L8.22095 0.732807L0.749272 8.01406L1.22949 8.50684L1.70971 8.99962L9.18139 1.71837L8.70117 1.22559ZM1.22949 8.50684L0.74795 8.01535C0.572658 8.18709 0.475991 8.42124 0.475991 8.66309L1.16406 8.66309L1.85213 8.66309C1.85213 8.78751 1.80247 8.90873 1.71103 8.99832L1.22949 8.50684ZM1.16406 8.66309H0.475991V39.4805H1.16406H1.85213V8.66309H1.16406ZM0 39.4805H0.688072V8.66309H0H-0.688072V39.4805H0ZM0 8.66309H0.688072C0.688072 8.49905 0.746139 8.3409 0.850385 8.21664L0.323242 7.77441L-0.2039 7.33219C-0.51535 7.70344 -0.688072 8.17448 -0.688072 8.66309H0ZM0.323242 7.77441L0.826422 8.24373L0.921148 8.14216L0.417969 7.67285L-0.0852106 7.20354L-0.179937 7.3051L0.323242 7.77441ZM0.417969 7.67285L0.898188 8.16563L8.36889 0.885358L7.88867 0.392578L7.40845 -0.100202L-0.0622504 7.18007L0.417969 7.67285ZM7.88867 0.392578L8.36889 0.885364C8.49861 0.758945 8.67283 0.688093 8.8536 0.688072L8.85352 0L8.85344 -0.688072C8.31354 -0.688009 7.79486 -0.476751 7.40846 -0.100208L7.88867 0.392578ZM8.85352 0V0.688072H89.2783V0V-0.688072H8.85352V0ZM89.2783 0V0.688072C89.2198 0.688072 89.1723 0.640598 89.1723 0.582031H89.8604H90.5484C90.5484 -0.119429 89.9798 -0.688072 89.2783 -0.688072V0ZM0.582031 40.0625V39.3744C0.640596 39.3744 0.688072 39.4219 0.688072 39.4805H0H-0.688072C-0.688072 40.1819 -0.119427 40.7506 0.582031 40.7506V40.0625ZM1.16406 39.4805H0.475991C0.475991 39.4219 0.523466 39.3744 0.582031 39.3744V40.0625V40.7506C1.28349 40.7506 1.85213 40.1819 1.85213 39.4805H1.16406ZM89.2783 1.16406V1.85213C89.9798 1.85213 90.5484 1.28349 90.5484 0.582031H89.8604H89.1723C89.1723 0.523467 89.2198 0.475991 89.2783 0.475991V1.16406Z" fill="url(#paint0_linear_6_465)" mask="url(#path-1-inside-1_6_465)"/>
<defs>
<linearGradient id="paint0_linear_6_465" x1="58.7069" y1="51.8245" x2="58.4716" y2="-7.23006" gradientUnits="userSpaceOnUse">
<stop offset="0.072983" stop-color="#FFE01A"/>
<stop offset="0.992598" stop-color="#FABA3E"/>
</linearGradient>
</defs>
</svg>
