<svg width="367" height="58" viewBox="0 0 367 58" fill="none" xmlns="http://www.w3.org/2000/svg">
<mask id="path-1-inside-1_2325_28138" fill="white">
<path d="M353.711 4.21498e-06L353.858 0.00684015C354.2 0.0368389 354.526 0.169629 354.792 0.390629L366.142 9.83887L366.278 9.9668C366.536 10.2351 366.698 10.5813 366.739 10.9512L366.75 11.1377L366.75 56.3096L366.741 56.4824C366.655 57.3348 365.935 58 365.06 58L344.961 58C344.569 58 344.25 57.6815 344.25 57.2886C344.25 56.8957 344.569 56.5772 344.961 56.5772L365.06 56.5772C365.207 56.5772 365.327 56.4571 365.327 56.3096L365.327 11.1377C365.327 11.0585 365.291 10.9833 365.23 10.9326L353.882 1.48438C353.834 1.44449 353.773 1.42292 353.711 1.42286L129.961 1.42285C129.569 1.42285 129.25 1.10434 129.25 0.711427C129.25 0.318517 129.569 1.54211e-06 129.961 1.54679e-06L353.711 4.21498e-06ZM0.250001 1.69043C0.25 0.757095 1.0071 9.02828e-09 1.94043 2.01582e-08L24.5386 2.89638e-07C24.9315 2.94324e-07 25.25 0.318516 25.25 0.711426C25.25 1.10434 24.9315 1.42285 24.5386 1.42285L1.94043 1.42285C1.79293 1.42285 1.67285 1.54293 1.67285 1.69043L1.67285 46.8623C1.67294 46.9415 1.70866 47.0167 1.76953 47.0674L13.1182 56.5156C13.1661 56.5555 13.2267 56.5771 13.2891 56.5771L231.539 56.5772C231.931 56.5772 232.25 56.8957 232.25 57.2886C232.25 57.6815 231.931 58 231.539 58L13.2891 58C12.9434 58 12.6072 57.8941 12.3252 57.6982L12.208 57.6084L0.858399 48.1611C0.472813 47.8401 0.250091 47.364 0.25 46.8623L0.250001 1.69043Z"/>
</mask>
<g clip-path="url(#paint0_angular_2325_28138_clip_path)" data-figma-skip-parse="true" mask="url(#path-1-inside-1_2325_28138)"><g transform="matrix(-0.269427 0.0135417 -0.00887797 -0.088807 204.924 35.5465)"><foreignObject x="-768.218" y="-768.218" width="1536.44" height="1536.44"><div xmlns="http://www.w3.org/1999/xhtml" style="background:conic-gradient(from 90deg,rgba(114, 76, 232, 1) 0deg,rgba(114, 76, 232, 1) 26.2739deg,rgba(230, 165, 165, 1) 140.266deg,rgba(195, 76, 82, 1) 182.112deg,rgba(114, 76, 232, 1) 357.335deg,rgba(114, 76, 232, 1) 360deg);height:100%;width:100%;opacity:1"></div></foreignObject></g></g><path d="M353.711 4.21498e-06L353.757 -0.998924L353.734 -0.999996L353.711 -0.999996L353.711 4.21498e-06ZM353.858 0.00684015L353.946 -0.98933L353.925 -0.991134L353.905 -0.992088L353.858 0.00684015ZM354.792 0.390629L355.432 -0.377918L355.432 -0.377998L354.792 0.390629ZM366.142 9.83887L366.825 9.10869L366.804 9.08888L366.781 9.07032L366.142 9.83887ZM366.278 9.9668L366.999 9.27374L366.981 9.25468L366.962 9.23661L366.278 9.9668ZM366.739 10.9512L367.738 10.8937L367.736 10.8671L367.733 10.8407L366.739 10.9512ZM366.75 11.1377L367.75 11.1377L367.75 11.1089L367.748 11.0802L366.75 11.1377ZM366.75 56.3096L367.749 56.3604L367.75 56.335L367.75 56.3096L366.75 56.3096ZM366.741 56.4824L367.736 56.5832L367.739 56.5583L367.74 56.5332L366.741 56.4824ZM365.06 58L365.06 59L365.06 58ZM365.06 56.5772L365.06 57.5772L365.06 56.5772ZM365.327 56.3096L366.327 56.3096L366.327 56.3096L365.327 56.3096ZM365.327 11.1377L366.327 11.1377L366.327 11.1368L365.327 11.1377ZM365.23 10.9326L364.591 11.7011L364.591 11.7012L365.23 10.9326ZM353.882 1.48438L354.522 0.715859L354.522 0.715832L353.882 1.48438ZM353.711 1.42286L353.712 0.422856L353.711 0.422856L353.711 1.42286ZM0.250001 1.69043L1.25 1.69043L0.250001 1.69043ZM1.94043 2.01582e-08L1.94043 -1L1.94043 -1L1.94043 2.01582e-08ZM1.94043 1.42285L1.94043 0.422852L1.94043 0.422852L1.94043 1.42285ZM1.67285 1.69043L2.67285 1.69043L1.67285 1.69043ZM1.67285 46.8623L0.672851 46.8623L0.672852 46.8635L1.67285 46.8623ZM1.76953 47.0674L2.40936 46.2989L2.40933 46.2988L1.76953 47.0674ZM13.1182 56.5156L12.4783 57.2841L12.4785 57.2843L13.1182 56.5156ZM13.2891 56.5771L13.2885 57.5771L13.2891 57.5771L13.2891 56.5771ZM13.2891 58L13.289 59L13.2891 59L13.2891 58ZM12.3252 57.6982L11.7168 58.4918L11.7354 58.5062L11.7548 58.5196L12.3252 57.6982ZM12.208 57.6084L11.5683 58.377L11.5837 58.3898L11.5996 58.402L12.208 57.6084ZM0.858399 48.1611L0.21858 48.9297L0.218644 48.9297L0.858399 48.1611ZM0.25 46.8623L-0.75 46.8623L-0.75 46.8625L0.25 46.8623ZM353.711 4.21498e-06L353.665 0.998932L353.812 1.00577L353.858 0.00684015L353.905 -0.992088L353.757 -0.998924L353.711 4.21498e-06ZM353.858 0.00684015L353.771 1.00301C353.912 1.0154 354.045 1.0701 354.152 1.15926L354.792 0.390629L355.432 -0.377998C355.008 -0.730838 354.488 -0.941726 353.946 -0.98933L353.858 0.00684015ZM354.792 0.390629L354.152 1.15918L365.502 10.6074L366.142 9.83887L366.781 9.07032L355.432 -0.377918L354.792 0.390629ZM366.142 9.83887L365.458 10.5691L365.595 10.697L366.278 9.9668L366.962 9.23661L366.825 9.10869L366.142 9.83887ZM366.278 9.9668L365.557 10.6599C365.662 10.7689 365.729 10.9102 365.745 11.0617L366.739 10.9512L367.733 10.8407C367.668 10.2524 367.41 9.70126 366.999 9.27374L366.278 9.9668ZM366.739 10.9512L365.741 11.0087L365.752 11.1952L366.75 11.1377L367.748 11.0802L367.738 10.8937L366.739 10.9512ZM366.75 11.1377L365.75 11.1377L365.75 56.3096L366.75 56.3096L367.75 56.3096L367.75 11.1377L366.75 11.1377ZM366.75 56.3096L365.751 56.2588L365.742 56.4316L366.741 56.4824L367.74 56.5332L367.749 56.3604L366.75 56.3096ZM366.741 56.4824L365.746 56.3816C365.711 56.7283 365.417 57 365.06 57L365.06 58L365.06 59C366.453 59 367.599 57.9413 367.736 56.5832L366.741 56.4824ZM365.06 58L365.06 57L344.961 57L344.961 58L344.961 59L365.06 59L365.06 58ZM344.961 56.5772L344.961 57.5772L365.06 57.5772L365.06 56.5772L365.06 55.5772L344.961 55.5772L344.961 56.5772ZM365.06 56.5772L365.06 57.5772C365.759 57.5771 366.327 57.0093 366.327 56.3096L365.327 56.3096L364.327 56.3096C364.327 55.9048 364.655 55.5772 365.06 55.5772L365.06 56.5772ZM365.327 56.3096L366.327 56.3096L366.327 11.1377L365.327 11.1377L364.327 11.1377L364.327 56.3096L365.327 56.3096ZM365.327 11.1377L366.327 11.1368C366.327 10.7571 366.156 10.4021 365.87 10.1641L365.23 10.9326L364.591 11.7012C364.427 11.5646 364.327 11.3599 364.327 11.1386L365.327 11.1377ZM365.23 10.9326L365.87 10.1641L354.522 0.715859L353.882 1.48438L353.242 2.2529L364.591 11.7011L365.23 10.9326ZM353.882 1.48438L354.522 0.715832C354.291 0.523831 354.003 0.42315 353.712 0.422856L353.711 1.42286L353.71 2.42286C353.543 2.42269 353.377 2.36515 353.242 2.25293L353.882 1.48438ZM353.711 1.42286L353.711 0.422856L129.961 0.422853L129.961 1.42285L129.961 2.42285L353.711 2.42286L353.711 1.42286ZM129.961 1.54679e-06L129.961 1L353.711 1L353.711 4.21498e-06L353.711 -0.999996L129.961 -0.999998L129.961 1.54679e-06ZM0.250001 1.69043L1.25 1.69043C1.25 1.30938 1.55938 1 1.94043 1L1.94043 2.01582e-08L1.94043 -1C0.454813 -1 -0.75 0.204811 -0.749999 1.69043L0.250001 1.69043ZM1.94043 2.01582e-08L1.94043 1L24.5386 1L24.5386 2.89638e-07L24.5386 -1L1.94043 -1L1.94043 2.01582e-08ZM24.5386 1.42285L24.5386 0.422852L1.94043 0.422852L1.94043 1.42285L1.94043 2.42285L24.5386 2.42285L24.5386 1.42285ZM1.94043 1.42285L1.94043 0.422852C1.24064 0.422852 0.672852 0.990654 0.672852 1.69043L1.67285 1.69043L2.67285 1.69043C2.67285 2.09521 2.34522 2.42285 1.94043 2.42285L1.94043 1.42285ZM1.67285 1.69043L0.672852 1.69043L0.672852 46.8623L1.67285 46.8623L2.67285 46.8623L2.67285 1.69043L1.67285 1.69043ZM1.67285 46.8623L0.672852 46.8635C0.673288 47.2428 0.843708 47.5978 1.12973 47.8359L1.76953 47.0674L2.40933 46.2988C2.57361 46.4356 2.6726 46.6402 2.67285 46.8612L1.67285 46.8623ZM1.76953 47.0674L1.1297 47.8359L12.4783 57.2841L13.1182 56.5156L13.758 55.7471L2.40936 46.2989L1.76953 47.0674ZM13.1182 56.5156L12.4785 57.2843C12.7088 57.4759 12.9964 57.577 13.2885 57.5771L13.2891 56.5771L13.2897 55.5771C13.4571 55.5772 13.6234 55.6351 13.7578 55.747L13.1182 56.5156ZM13.2891 56.5771L13.2891 57.5771L231.539 57.5772L231.539 56.5772L231.539 55.5772L13.2891 55.5771L13.2891 56.5771ZM231.539 58L231.539 57L13.2891 57L13.2891 58L13.2891 59L231.539 59L231.539 58ZM13.2891 58L13.2892 57C13.1478 57 13.0105 56.9567 12.8956 56.8769L12.3252 57.6982L11.7548 58.5196C12.2039 58.8315 12.739 58.9999 13.289 59L13.2891 58ZM12.3252 57.6982L12.9336 56.9046L12.8164 56.8148L12.208 57.6084L11.5996 58.402L11.7168 58.4918L12.3252 57.6982ZM12.208 57.6084L12.8478 56.8398L1.49815 47.3926L0.858399 48.1611L0.218644 48.9297L11.5683 58.377L12.208 57.6084ZM0.858399 48.1611L1.49822 47.3926C1.34128 47.262 1.25004 47.0676 1.25 46.8621L0.25 46.8623L-0.75 46.8625C-0.749855 47.6605 -0.395651 48.4183 0.21858 48.9297L0.858399 48.1611ZM0.25 46.8623L1.25 46.8623L1.25 1.69043L0.250001 1.69043L-0.749999 1.69043L-0.75 46.8623L0.25 46.8623ZM232.25 57.2886L231.25 57.2886C231.25 57.1292 231.379 57 231.539 57L231.539 58L231.539 59C232.484 59 233.25 58.2338 233.25 57.2886L232.25 57.2886ZM25.25 0.711426L24.25 0.711426C24.25 0.552052 24.3792 0.422852 24.5386 0.422852L24.5386 1.42285L24.5386 2.42285C25.4838 2.42285 26.25 1.65662 26.25 0.711426L25.25 0.711426ZM344.25 57.2886L345.25 57.2886C345.25 57.448 345.121 57.5772 344.961 57.5772L344.961 56.5772L344.961 55.5772C344.016 55.5772 343.25 56.3434 343.25 57.2886L344.25 57.2886ZM24.5386 2.89638e-07L24.5386 1C24.3792 1 24.25 0.8708 24.25 0.711426L25.25 0.711426L26.25 0.711426C26.25 -0.233768 25.4838 -1 24.5386 -1L24.5386 2.89638e-07ZM231.539 56.5772L231.539 57.5772C231.379 57.5772 231.25 57.448 231.25 57.2886L232.25 57.2886L233.25 57.2886C233.25 56.3434 232.484 55.5772 231.539 55.5772L231.539 56.5772ZM129.25 0.711427L130.25 0.711427C130.25 0.870802 130.121 1 129.961 1L129.961 1.54679e-06L129.961 -0.999998C129.016 -0.999998 128.25 -0.233767 128.25 0.711427L129.25 0.711427ZM129.961 1.42285L129.961 0.422853C130.121 0.422853 130.25 0.552057 130.25 0.711427L129.25 0.711427L128.25 0.711427C128.25 1.65662 129.016 2.42285 129.961 2.42285L129.961 1.42285ZM344.961 58L344.961 57C345.121 57 345.25 57.1292 345.25 57.2886L344.25 57.2886L343.25 57.2886C343.25 58.2338 344.016 59 344.961 59L344.961 58Z" data-figma-gradient-fill="{&#34;type&#34;:&#34;GRADIENT_ANGULAR&#34;,&#34;stops&#34;:[{&#34;color&#34;:{&#34;r&#34;:0.44705882668495178,&#34;g&#34;:0.29803922772407532,&#34;b&#34;:0.90980392694473267,&#34;a&#34;:1.0},&#34;position&#34;:0.072983048856258392},{&#34;color&#34;:{&#34;r&#34;:0.90196079015731812,&#34;g&#34;:0.64705884456634521,&#34;b&#34;:0.64705884456634521,&#34;a&#34;:1.0},&#34;position&#34;:0.38962870836257935},{&#34;color&#34;:{&#34;r&#34;:0.76470589637756348,&#34;g&#34;:0.29803922772407532,&#34;b&#34;:0.32156863808631897,&#34;a&#34;:1.0},&#34;position&#34;:0.50586801767349243},{&#34;color&#34;:{&#34;r&#34;:0.44705882668495178,&#34;g&#34;:0.29803922772407532,&#34;b&#34;:0.90980392694473267,&#34;a&#34;:1.0},&#34;position&#34;:0.99259775876998901}],&#34;stopsVar&#34;:[],&#34;transform&#34;:{&#34;m00&#34;:-538.85388183593750,&#34;m01&#34;:-17.755949020385742,&#34;m02&#34;:483.22897338867188,&#34;m10&#34;:27.083364486694336,&#34;m11&#34;:-177.61408996582031,&#34;m12&#34;:110.81188201904297},&#34;opacity&#34;:1.0,&#34;blendMode&#34;:&#34;NORMAL&#34;,&#34;visible&#34;:true}" mask="url(#path-1-inside-1_2325_28138)"/>
<defs>
<clipPath id="paint0_angular_2325_28138_clip_path"><path d="M353.711 4.21498e-06L353.757 -0.998924L353.734 -0.999996L353.711 -0.999996L353.711 4.21498e-06ZM353.858 0.00684015L353.946 -0.98933L353.925 -0.991134L353.905 -0.992088L353.858 0.00684015ZM354.792 0.390629L355.432 -0.377918L355.432 -0.377998L354.792 0.390629ZM366.142 9.83887L366.825 9.10869L366.804 9.08888L366.781 9.07032L366.142 9.83887ZM366.278 9.9668L366.999 9.27374L366.981 9.25468L366.962 9.23661L366.278 9.9668ZM366.739 10.9512L367.738 10.8937L367.736 10.8671L367.733 10.8407L366.739 10.9512ZM366.75 11.1377L367.75 11.1377L367.75 11.1089L367.748 11.0802L366.75 11.1377ZM366.75 56.3096L367.749 56.3604L367.75 56.335L367.75 56.3096L366.75 56.3096ZM366.741 56.4824L367.736 56.5832L367.739 56.5583L367.74 56.5332L366.741 56.4824ZM365.06 58L365.06 59L365.06 58ZM365.06 56.5772L365.06 57.5772L365.06 56.5772ZM365.327 56.3096L366.327 56.3096L366.327 56.3096L365.327 56.3096ZM365.327 11.1377L366.327 11.1377L366.327 11.1368L365.327 11.1377ZM365.23 10.9326L364.591 11.7011L364.591 11.7012L365.23 10.9326ZM353.882 1.48438L354.522 0.715859L354.522 0.715832L353.882 1.48438ZM353.711 1.42286L353.712 0.422856L353.711 0.422856L353.711 1.42286ZM0.250001 1.69043L1.25 1.69043L0.250001 1.69043ZM1.94043 2.01582e-08L1.94043 -1L1.94043 -1L1.94043 2.01582e-08ZM1.94043 1.42285L1.94043 0.422852L1.94043 0.422852L1.94043 1.42285ZM1.67285 1.69043L2.67285 1.69043L1.67285 1.69043ZM1.67285 46.8623L0.672851 46.8623L0.672852 46.8635L1.67285 46.8623ZM1.76953 47.0674L2.40936 46.2989L2.40933 46.2988L1.76953 47.0674ZM13.1182 56.5156L12.4783 57.2841L12.4785 57.2843L13.1182 56.5156ZM13.2891 56.5771L13.2885 57.5771L13.2891 57.5771L13.2891 56.5771ZM13.2891 58L13.289 59L13.2891 59L13.2891 58ZM12.3252 57.6982L11.7168 58.4918L11.7354 58.5062L11.7548 58.5196L12.3252 57.6982ZM12.208 57.6084L11.5683 58.377L11.5837 58.3898L11.5996 58.402L12.208 57.6084ZM0.858399 48.1611L0.21858 48.9297L0.218644 48.9297L0.858399 48.1611ZM0.25 46.8623L-0.75 46.8623L-0.75 46.8625L0.25 46.8623ZM353.711 4.21498e-06L353.665 0.998932L353.812 1.00577L353.858 0.00684015L353.905 -0.992088L353.757 -0.998924L353.711 4.21498e-06ZM353.858 0.00684015L353.771 1.00301C353.912 1.0154 354.045 1.0701 354.152 1.15926L354.792 0.390629L355.432 -0.377998C355.008 -0.730838 354.488 -0.941726 353.946 -0.98933L353.858 0.00684015ZM354.792 0.390629L354.152 1.15918L365.502 10.6074L366.142 9.83887L366.781 9.07032L355.432 -0.377918L354.792 0.390629ZM366.142 9.83887L365.458 10.5691L365.595 10.697L366.278 9.9668L366.962 9.23661L366.825 9.10869L366.142 9.83887ZM366.278 9.9668L365.557 10.6599C365.662 10.7689 365.729 10.9102 365.745 11.0617L366.739 10.9512L367.733 10.8407C367.668 10.2524 367.41 9.70126 366.999 9.27374L366.278 9.9668ZM366.739 10.9512L365.741 11.0087L365.752 11.1952L366.75 11.1377L367.748 11.0802L367.738 10.8937L366.739 10.9512ZM366.75 11.1377L365.75 11.1377L365.75 56.3096L366.75 56.3096L367.75 56.3096L367.75 11.1377L366.75 11.1377ZM366.75 56.3096L365.751 56.2588L365.742 56.4316L366.741 56.4824L367.74 56.5332L367.749 56.3604L366.75 56.3096ZM366.741 56.4824L365.746 56.3816C365.711 56.7283 365.417 57 365.06 57L365.06 58L365.06 59C366.453 59 367.599 57.9413 367.736 56.5832L366.741 56.4824ZM365.06 58L365.06 57L344.961 57L344.961 58L344.961 59L365.06 59L365.06 58ZM344.961 56.5772L344.961 57.5772L365.06 57.5772L365.06 56.5772L365.06 55.5772L344.961 55.5772L344.961 56.5772ZM365.06 56.5772L365.06 57.5772C365.759 57.5771 366.327 57.0093 366.327 56.3096L365.327 56.3096L364.327 56.3096C364.327 55.9048 364.655 55.5772 365.06 55.5772L365.06 56.5772ZM365.327 56.3096L366.327 56.3096L366.327 11.1377L365.327 11.1377L364.327 11.1377L364.327 56.3096L365.327 56.3096ZM365.327 11.1377L366.327 11.1368C366.327 10.7571 366.156 10.4021 365.87 10.1641L365.23 10.9326L364.591 11.7012C364.427 11.5646 364.327 11.3599 364.327 11.1386L365.327 11.1377ZM365.23 10.9326L365.87 10.1641L354.522 0.715859L353.882 1.48438L353.242 2.2529L364.591 11.7011L365.23 10.9326ZM353.882 1.48438L354.522 0.715832C354.291 0.523831 354.003 0.42315 353.712 0.422856L353.711 1.42286L353.71 2.42286C353.543 2.42269 353.377 2.36515 353.242 2.25293L353.882 1.48438ZM353.711 1.42286L353.711 0.422856L129.961 0.422853L129.961 1.42285L129.961 2.42285L353.711 2.42286L353.711 1.42286ZM129.961 1.54679e-06L129.961 1L353.711 1L353.711 4.21498e-06L353.711 -0.999996L129.961 -0.999998L129.961 1.54679e-06ZM0.250001 1.69043L1.25 1.69043C1.25 1.30938 1.55938 1 1.94043 1L1.94043 2.01582e-08L1.94043 -1C0.454813 -1 -0.75 0.204811 -0.749999 1.69043L0.250001 1.69043ZM1.94043 2.01582e-08L1.94043 1L24.5386 1L24.5386 2.89638e-07L24.5386 -1L1.94043 -1L1.94043 2.01582e-08ZM24.5386 1.42285L24.5386 0.422852L1.94043 0.422852L1.94043 1.42285L1.94043 2.42285L24.5386 2.42285L24.5386 1.42285ZM1.94043 1.42285L1.94043 0.422852C1.24064 0.422852 0.672852 0.990654 0.672852 1.69043L1.67285 1.69043L2.67285 1.69043C2.67285 2.09521 2.34522 2.42285 1.94043 2.42285L1.94043 1.42285ZM1.67285 1.69043L0.672852 1.69043L0.672852 46.8623L1.67285 46.8623L2.67285 46.8623L2.67285 1.69043L1.67285 1.69043ZM1.67285 46.8623L0.672852 46.8635C0.673288 47.2428 0.843708 47.5978 1.12973 47.8359L1.76953 47.0674L2.40933 46.2988C2.57361 46.4356 2.6726 46.6402 2.67285 46.8612L1.67285 46.8623ZM1.76953 47.0674L1.1297 47.8359L12.4783 57.2841L13.1182 56.5156L13.758 55.7471L2.40936 46.2989L1.76953 47.0674ZM13.1182 56.5156L12.4785 57.2843C12.7088 57.4759 12.9964 57.577 13.2885 57.5771L13.2891 56.5771L13.2897 55.5771C13.4571 55.5772 13.6234 55.6351 13.7578 55.747L13.1182 56.5156ZM13.2891 56.5771L13.2891 57.5771L231.539 57.5772L231.539 56.5772L231.539 55.5772L13.2891 55.5771L13.2891 56.5771ZM231.539 58L231.539 57L13.2891 57L13.2891 58L13.2891 59L231.539 59L231.539 58ZM13.2891 58L13.2892 57C13.1478 57 13.0105 56.9567 12.8956 56.8769L12.3252 57.6982L11.7548 58.5196C12.2039 58.8315 12.739 58.9999 13.289 59L13.2891 58ZM12.3252 57.6982L12.9336 56.9046L12.8164 56.8148L12.208 57.6084L11.5996 58.402L11.7168 58.4918L12.3252 57.6982ZM12.208 57.6084L12.8478 56.8398L1.49815 47.3926L0.858399 48.1611L0.218644 48.9297L11.5683 58.377L12.208 57.6084ZM0.858399 48.1611L1.49822 47.3926C1.34128 47.262 1.25004 47.0676 1.25 46.8621L0.25 46.8623L-0.75 46.8625C-0.749855 47.6605 -0.395651 48.4183 0.21858 48.9297L0.858399 48.1611ZM0.25 46.8623L1.25 46.8623L1.25 1.69043L0.250001 1.69043L-0.749999 1.69043L-0.75 46.8623L0.25 46.8623ZM232.25 57.2886L231.25 57.2886C231.25 57.1292 231.379 57 231.539 57L231.539 58L231.539 59C232.484 59 233.25 58.2338 233.25 57.2886L232.25 57.2886ZM25.25 0.711426L24.25 0.711426C24.25 0.552052 24.3792 0.422852 24.5386 0.422852L24.5386 1.42285L24.5386 2.42285C25.4838 2.42285 26.25 1.65662 26.25 0.711426L25.25 0.711426ZM344.25 57.2886L345.25 57.2886C345.25 57.448 345.121 57.5772 344.961 57.5772L344.961 56.5772L344.961 55.5772C344.016 55.5772 343.25 56.3434 343.25 57.2886L344.25 57.2886ZM24.5386 2.89638e-07L24.5386 1C24.3792 1 24.25 0.8708 24.25 0.711426L25.25 0.711426L26.25 0.711426C26.25 -0.233768 25.4838 -1 24.5386 -1L24.5386 2.89638e-07ZM231.539 56.5772L231.539 57.5772C231.379 57.5772 231.25 57.448 231.25 57.2886L232.25 57.2886L233.25 57.2886C233.25 56.3434 232.484 55.5772 231.539 55.5772L231.539 56.5772ZM129.25 0.711427L130.25 0.711427C130.25 0.870802 130.121 1 129.961 1L129.961 1.54679e-06L129.961 -0.999998C129.016 -0.999998 128.25 -0.233767 128.25 0.711427L129.25 0.711427ZM129.961 1.42285L129.961 0.422853C130.121 0.422853 130.25 0.552057 130.25 0.711427L129.25 0.711427L128.25 0.711427C128.25 1.65662 129.016 2.42285 129.961 2.42285L129.961 1.42285ZM344.961 58L344.961 57C345.121 57 345.25 57.1292 345.25 57.2886L344.25 57.2886L343.25 57.2886C343.25 58.2338 344.016 59 344.961 59L344.961 58Z" mask="url(#path-1-inside-1_2325_28138)"/></clipPath></defs>
</svg>
