<svg width="469" height="59" viewBox="0 0 469 59" fill="none" xmlns="http://www.w3.org/2000/svg">
<mask id="path-1-inside-1_445_19208" fill="white">
<path fill-rule="evenodd" clip-rule="evenodd" d="M7.40178e-06 47.417L5.19098e-07 14.9137C4.36057e-07 14.5215 0.317907 14.2036 0.710065 14.2036C1.10222 14.2036 1.42013 14.5215 1.42013 14.9137L1.42014 47.417C1.42014 47.4861 1.44694 47.5524 1.4949 47.6021L10.5106 56.9426C10.5609 56.9947 10.6301 57.0241 10.7024 57.0241L458.346 57.0242L466.646 57.0242C466.793 57.0242 466.913 56.9049 466.913 56.7577L466.913 11.4715C466.913 11.4024 466.886 11.3361 466.838 11.2864L457.822 1.9459C457.772 1.89386 457.703 1.86447 457.63 1.86447L306.019 1.86443C305.627 1.86443 305.309 1.54652 305.309 1.15437C305.309 0.762207 305.627 0.444301 306.019 0.444301L457.63 0.444338C458.088 0.444338 458.526 0.630331 458.844 0.959635L467.86 10.3001C468.163 10.6145 468.333 11.0345 468.333 11.4715L468.333 56.7577C468.333 57.6892 467.578 58.4443 466.646 58.4443L458.346 58.4443L10.7024 58.4442C10.2447 58.4442 9.80668 58.2582 9.48882 57.9289L0.473112 48.5884C0.169619 48.274 7.49931e-06 47.854 7.40178e-06 47.417Z"/>
</mask>
<g clip-path="url(#paint0_angular_445_19208_clip_path)" data-figma-skip-parse="true" mask="url(#path-1-inside-1_445_19208)"><g transform="matrix(-0.344288 0.0134945 -0.0113447 -0.0884978 261.543 36.069)"><foreignObject x="-766.894" y="-766.894" width="1533.79" height="1533.79"><div xmlns="http://www.w3.org/1999/xhtml" style="background:conic-gradient(from 90deg,rgba(114, 76, 232, 1) 0deg,rgba(114, 76, 232, 1) 26.2739deg,rgba(230, 165, 165, 1) 140.266deg,rgba(195, 76, 82, 1) 182.112deg,rgba(114, 76, 232, 1) 357.335deg,rgba(114, 76, 232, 1) 360deg);height:100%;width:100%;opacity:1"></div></foreignObject></g></g><path d="M7.40178e-06 47.417L-0.839661 47.417L7.40178e-06 47.417ZM1.42014 47.417L2.2598 47.417L2.2598 47.417L1.42014 47.417ZM1.4949 47.6021L2.09905 47.019L2.09905 47.019L1.4949 47.6021ZM10.5106 56.9426L11.1148 56.3595L10.5106 56.9426ZM10.7024 57.0241L10.7024 56.1844L10.7024 57.0241ZM458.346 57.0242L458.346 57.8639L458.346 57.0242ZM466.913 56.7577L467.752 56.7577L466.913 56.7577ZM466.913 11.4715L466.073 11.4715L466.913 11.4715ZM466.838 11.2864L466.234 11.8695L466.234 11.8696L466.838 11.2864ZM457.822 1.9459L457.218 2.52903L457.218 2.52904L457.822 1.9459ZM457.63 1.86447L457.63 2.70413L457.63 1.86447ZM457.63 0.444338L457.63 1.28401L457.63 0.444338ZM458.844 0.959635L458.24 1.54276L458.24 1.54278L458.844 0.959635ZM467.86 10.3001L468.464 9.71696L467.86 10.3001ZM468.333 11.4715L467.493 11.4715L468.333 11.4715ZM468.333 56.7577L469.172 56.7577L468.333 56.7577ZM458.346 58.4443L458.346 59.284L458.346 58.4443ZM10.7024 58.4442L10.7024 57.6045L10.7024 58.4442ZM9.48882 57.9289L10.093 57.3458L10.093 57.3458L9.48882 57.9289ZM0.473112 48.5884L1.07726 48.0053L1.07726 48.0053L0.473112 48.5884ZM306.019 1.86443L306.019 2.7041L306.019 1.86443ZM1.42013 14.9137L0.58046 14.9137L1.42013 14.9137ZM306.019 0.444301L306.019 1.28397L306.019 0.444301ZM-0.839668 14.9137L-0.839661 47.417L0.839676 47.417L0.839669 14.9137L-0.839668 14.9137ZM2.2598 47.417L2.2598 14.9137L0.58046 14.9137L0.580467 47.417L2.2598 47.417ZM2.09905 47.019C2.20217 47.1258 2.2598 47.2685 2.2598 47.417L0.580467 47.417C0.580467 47.7036 0.691707 47.9791 0.890758 48.1853L2.09905 47.019ZM11.1148 56.3595L2.09905 47.019L0.890757 48.1853L9.90647 57.5258L11.1148 56.3595ZM10.7024 56.1844C10.8579 56.1844 11.0068 56.2476 11.1148 56.3595L9.90647 57.5258C10.1149 57.7418 10.4022 57.8637 10.7024 57.8637L10.7024 56.1844ZM458.346 56.1845L10.7024 56.1844L10.7024 57.8637L458.346 57.8639L458.346 56.1845ZM466.646 56.1845L458.346 56.1845L458.346 57.8639L466.646 57.8639L466.646 56.1845ZM466.073 56.7577C466.073 56.4412 466.329 56.1845 466.646 56.1845L466.646 57.8639C467.257 57.8639 467.752 57.3686 467.752 56.7577L466.073 56.7577ZM466.073 11.4715L466.073 56.7577L467.752 56.7577L467.752 11.4715L466.073 11.4715ZM466.234 11.8696C466.131 11.7627 466.073 11.6199 466.073 11.4715L467.752 11.4715C467.752 11.1849 467.641 10.9095 467.442 10.7032L466.234 11.8696ZM457.218 2.52904L466.234 11.8695L467.442 10.7032L458.426 1.36276L457.218 2.52904ZM457.63 2.70413C457.475 2.70413 457.326 2.64091 457.218 2.52903L458.426 1.36278C458.218 1.1468 457.931 1.0248 457.63 1.0248L457.63 2.70413ZM306.019 2.7041L457.63 2.70413L457.63 1.0248L306.019 1.02476L306.019 2.7041ZM457.63 -0.395331L306.019 -0.395367L306.019 1.28397L457.63 1.28401L457.63 -0.395331ZM459.448 0.376508C458.972 -0.116755 458.316 -0.395331 457.63 -0.395331L457.63 1.28401C457.86 1.28401 458.08 1.37741 458.24 1.54276L459.448 0.376508ZM468.464 9.71696L459.448 0.376493L458.24 1.54278L467.255 10.8832L468.464 9.71696ZM469.172 11.4715C469.172 10.8169 468.918 10.1879 468.464 9.71696L467.255 10.8832C467.408 11.0411 467.493 11.252 467.493 11.4715L469.172 11.4715ZM469.172 56.7577L469.172 11.4715L467.493 11.4715L467.493 56.7577L469.172 56.7577ZM466.646 59.284C468.041 59.284 469.172 58.1529 469.172 56.7577L467.493 56.7577C467.493 57.2255 467.114 57.6047 466.646 57.6047L466.646 59.284ZM458.346 59.284L466.646 59.284L466.646 57.6047L458.346 57.6047L458.346 59.284ZM10.7024 59.2839L458.346 59.284L458.346 57.6047L10.7024 57.6045L10.7024 59.2839ZM8.88468 58.512C9.36077 59.0053 10.0169 59.2839 10.7024 59.2839L10.7024 57.6045C10.4726 57.6045 10.2526 57.5111 10.093 57.3458L8.88468 58.512ZM-0.131034 49.1715L8.88468 58.512L10.093 57.3458L1.07726 48.0053L-0.131034 49.1715ZM-0.839661 47.417C-0.839661 48.0716 -0.585613 48.7006 -0.131033 49.1715L1.07726 48.0053C0.924851 47.8474 0.839676 47.6365 0.839676 47.417L-0.839661 47.417ZM306.019 1.02476C306.091 1.02476 306.149 1.08279 306.149 1.15437L304.469 1.15437C304.469 2.01026 305.163 2.7041 306.019 2.7041L306.019 1.02476ZM0.710065 15.0433C0.638484 15.0433 0.58046 14.9853 0.58046 14.9137L2.2598 14.9137C2.2598 14.0578 1.56596 13.3639 0.710065 13.3639L0.710065 15.0433ZM306.149 1.15437C306.149 1.22594 306.091 1.28397 306.019 1.28397L306.019 -0.395367C305.163 -0.395367 304.469 0.298473 304.469 1.15437L306.149 1.15437ZM0.839669 14.9137C0.839669 14.9853 0.781643 15.0433 0.710065 15.0433L0.710065 13.3639C-0.145829 13.3639 -0.839668 14.0578 -0.839668 14.9137L0.839669 14.9137Z" data-figma-gradient-fill="{&#34;type&#34;:&#34;GRADIENT_ANGULAR&#34;,&#34;stops&#34;:[{&#34;color&#34;:{&#34;r&#34;:0.44705882668495178,&#34;g&#34;:0.29803922772407532,&#34;b&#34;:0.90980392694473267,&#34;a&#34;:1.0},&#34;position&#34;:0.072983048856258392},{&#34;color&#34;:{&#34;r&#34;:0.90196079015731812,&#34;g&#34;:0.64705884456634521,&#34;b&#34;:0.64705884456634521,&#34;a&#34;:1.0},&#34;position&#34;:0.38962870836257935},{&#34;color&#34;:{&#34;r&#34;:0.76470589637756348,&#34;g&#34;:0.29803922772407532,&#34;b&#34;:0.32156863808631897,&#34;a&#34;:1.0},&#34;position&#34;:0.50586801767349243},{&#34;color&#34;:{&#34;r&#34;:0.44705882668495178,&#34;g&#34;:0.29803922772407532,&#34;b&#34;:0.90980392694473267,&#34;a&#34;:1.0},&#34;position&#34;:0.99259775876998901}],&#34;stopsVar&#34;:[],&#34;transform&#34;:{&#34;m00&#34;:-688.57556152343750,&#34;m01&#34;:-22.689479827880859,&#34;m02&#34;:617.17565917968750,&#34;m10&#34;:26.989049911499023,&#34;m11&#34;:-176.99559020996094,&#34;m12&#34;:111.07231140136719},&#34;opacity&#34;:1.0,&#34;blendMode&#34;:&#34;NORMAL&#34;,&#34;visible&#34;:true}" mask="url(#path-1-inside-1_445_19208)"/>
<defs>
<clipPath id="paint0_angular_445_19208_clip_path"><path d="M7.40178e-06 47.417L-0.839661 47.417L7.40178e-06 47.417ZM1.42014 47.417L2.2598 47.417L2.2598 47.417L1.42014 47.417ZM1.4949 47.6021L2.09905 47.019L2.09905 47.019L1.4949 47.6021ZM10.5106 56.9426L11.1148 56.3595L10.5106 56.9426ZM10.7024 57.0241L10.7024 56.1844L10.7024 57.0241ZM458.346 57.0242L458.346 57.8639L458.346 57.0242ZM466.913 56.7577L467.752 56.7577L466.913 56.7577ZM466.913 11.4715L466.073 11.4715L466.913 11.4715ZM466.838 11.2864L466.234 11.8695L466.234 11.8696L466.838 11.2864ZM457.822 1.9459L457.218 2.52903L457.218 2.52904L457.822 1.9459ZM457.63 1.86447L457.63 2.70413L457.63 1.86447ZM457.63 0.444338L457.63 1.28401L457.63 0.444338ZM458.844 0.959635L458.24 1.54276L458.24 1.54278L458.844 0.959635ZM467.86 10.3001L468.464 9.71696L467.86 10.3001ZM468.333 11.4715L467.493 11.4715L468.333 11.4715ZM468.333 56.7577L469.172 56.7577L468.333 56.7577ZM458.346 58.4443L458.346 59.284L458.346 58.4443ZM10.7024 58.4442L10.7024 57.6045L10.7024 58.4442ZM9.48882 57.9289L10.093 57.3458L10.093 57.3458L9.48882 57.9289ZM0.473112 48.5884L1.07726 48.0053L1.07726 48.0053L0.473112 48.5884ZM306.019 1.86443L306.019 2.7041L306.019 1.86443ZM1.42013 14.9137L0.58046 14.9137L1.42013 14.9137ZM306.019 0.444301L306.019 1.28397L306.019 0.444301ZM-0.839668 14.9137L-0.839661 47.417L0.839676 47.417L0.839669 14.9137L-0.839668 14.9137ZM2.2598 47.417L2.2598 14.9137L0.58046 14.9137L0.580467 47.417L2.2598 47.417ZM2.09905 47.019C2.20217 47.1258 2.2598 47.2685 2.2598 47.417L0.580467 47.417C0.580467 47.7036 0.691707 47.9791 0.890758 48.1853L2.09905 47.019ZM11.1148 56.3595L2.09905 47.019L0.890757 48.1853L9.90647 57.5258L11.1148 56.3595ZM10.7024 56.1844C10.8579 56.1844 11.0068 56.2476 11.1148 56.3595L9.90647 57.5258C10.1149 57.7418 10.4022 57.8637 10.7024 57.8637L10.7024 56.1844ZM458.346 56.1845L10.7024 56.1844L10.7024 57.8637L458.346 57.8639L458.346 56.1845ZM466.646 56.1845L458.346 56.1845L458.346 57.8639L466.646 57.8639L466.646 56.1845ZM466.073 56.7577C466.073 56.4412 466.329 56.1845 466.646 56.1845L466.646 57.8639C467.257 57.8639 467.752 57.3686 467.752 56.7577L466.073 56.7577ZM466.073 11.4715L466.073 56.7577L467.752 56.7577L467.752 11.4715L466.073 11.4715ZM466.234 11.8696C466.131 11.7627 466.073 11.6199 466.073 11.4715L467.752 11.4715C467.752 11.1849 467.641 10.9095 467.442 10.7032L466.234 11.8696ZM457.218 2.52904L466.234 11.8695L467.442 10.7032L458.426 1.36276L457.218 2.52904ZM457.63 2.70413C457.475 2.70413 457.326 2.64091 457.218 2.52903L458.426 1.36278C458.218 1.1468 457.931 1.0248 457.63 1.0248L457.63 2.70413ZM306.019 2.7041L457.63 2.70413L457.63 1.0248L306.019 1.02476L306.019 2.7041ZM457.63 -0.395331L306.019 -0.395367L306.019 1.28397L457.63 1.28401L457.63 -0.395331ZM459.448 0.376508C458.972 -0.116755 458.316 -0.395331 457.63 -0.395331L457.63 1.28401C457.86 1.28401 458.08 1.37741 458.24 1.54276L459.448 0.376508ZM468.464 9.71696L459.448 0.376493L458.24 1.54278L467.255 10.8832L468.464 9.71696ZM469.172 11.4715C469.172 10.8169 468.918 10.1879 468.464 9.71696L467.255 10.8832C467.408 11.0411 467.493 11.252 467.493 11.4715L469.172 11.4715ZM469.172 56.7577L469.172 11.4715L467.493 11.4715L467.493 56.7577L469.172 56.7577ZM466.646 59.284C468.041 59.284 469.172 58.1529 469.172 56.7577L467.493 56.7577C467.493 57.2255 467.114 57.6047 466.646 57.6047L466.646 59.284ZM458.346 59.284L466.646 59.284L466.646 57.6047L458.346 57.6047L458.346 59.284ZM10.7024 59.2839L458.346 59.284L458.346 57.6047L10.7024 57.6045L10.7024 59.2839ZM8.88468 58.512C9.36077 59.0053 10.0169 59.2839 10.7024 59.2839L10.7024 57.6045C10.4726 57.6045 10.2526 57.5111 10.093 57.3458L8.88468 58.512ZM-0.131034 49.1715L8.88468 58.512L10.093 57.3458L1.07726 48.0053L-0.131034 49.1715ZM-0.839661 47.417C-0.839661 48.0716 -0.585613 48.7006 -0.131033 49.1715L1.07726 48.0053C0.924851 47.8474 0.839676 47.6365 0.839676 47.417L-0.839661 47.417ZM306.019 1.02476C306.091 1.02476 306.149 1.08279 306.149 1.15437L304.469 1.15437C304.469 2.01026 305.163 2.7041 306.019 2.7041L306.019 1.02476ZM0.710065 15.0433C0.638484 15.0433 0.58046 14.9853 0.58046 14.9137L2.2598 14.9137C2.2598 14.0578 1.56596 13.3639 0.710065 13.3639L0.710065 15.0433ZM306.149 1.15437C306.149 1.22594 306.091 1.28397 306.019 1.28397L306.019 -0.395367C305.163 -0.395367 304.469 0.298473 304.469 1.15437L306.149 1.15437ZM0.839669 14.9137C0.839669 14.9853 0.781643 15.0433 0.710065 15.0433L0.710065 13.3639C-0.145829 13.3639 -0.839668 14.0578 -0.839668 14.9137L0.839669 14.9137Z" mask="url(#path-1-inside-1_445_19208)"/></clipPath></defs>
</svg>
