<svg width="214" height="38" viewBox="0 0 214 38" fill="none" xmlns="http://www.w3.org/2000/svg">
<mask id="path-1-inside-1_2_3" fill="white">
<path d="M212.318 0.00585938C212.856 0.0603625 213.275 0.51441 213.275 1.06641V30.2979C213.275 30.5833 213.161 30.8573 212.958 31.0576L207.191 36.7354L207.113 36.8047C206.924 36.9572 206.688 37.042 206.443 37.042L201.164 37.0411C200.916 37.041 200.715 36.8401 200.715 36.5923C200.715 36.3445 200.916 36.1436 201.164 36.1436H206.443C206.487 36.1435 206.53 36.1266 206.562 36.0957L212.328 30.418C212.36 30.3864 212.378 30.3428 212.378 30.2979V1.06641C212.378 0.973569 212.303 0.898667 212.21 0.898438L6.83203 0.897461C6.78794 0.897562 6.74529 0.915347 6.71387 0.946289L0.948242 6.62305C0.916207 6.65464 0.897537 6.69818 0.897461 6.74316V30.772C0.897461 31.0198 0.696557 31.2207 0.44873 31.2207C0.200903 31.2207 0 31.0198 0 30.772V6.74316C6.63779e-05 6.49346 0.0880024 6.25293 0.246094 6.0625L0.318359 5.9834L6.08398 0.306641C6.28333 0.110364 6.55228 0.000101338 6.83203 0H212.21L212.318 0.00585938Z"/>
</mask>
<path d="M212.318 0.00585938L212.372 -0.522182L212.359 -0.523441L212.347 -0.524115L212.318 0.00585938ZM213.275 1.06641L213.806 1.06641L213.806 1.06632L213.275 1.06641ZM213.275 30.2979L213.806 30.2979V30.2979H213.275ZM212.958 31.0576L213.33 31.4358L213.331 31.4357L212.958 31.0576ZM207.191 36.7354L207.544 37.1323L207.554 37.1232L207.564 37.1135L207.191 36.7354ZM207.113 36.8047L207.447 37.2176L207.456 37.2098L207.466 37.2016L207.113 36.8047ZM206.443 37.042L206.443 37.5727L206.443 37.5727L206.443 37.042ZM206.443 36.1436L206.443 36.6743L206.444 36.6743L206.443 36.1436ZM206.562 36.0957L206.933 36.4746L206.934 36.4739L206.562 36.0957ZM212.328 30.418L212.7 30.7962L212.701 30.7953L212.328 30.418ZM212.378 30.2979L212.909 30.2983V30.2979H212.378ZM212.378 1.06641L212.909 1.06641L212.909 1.06586L212.378 1.06641ZM212.21 0.898438L212.211 0.36769L212.21 0.36769L212.21 0.898438ZM6.83203 0.897461L6.83203 0.366712L6.83081 0.366715L6.83203 0.897461ZM6.71387 0.946289L6.3415 0.568089L6.3415 0.56809L6.71387 0.946289ZM0.948242 6.62305L0.575873 6.24485L0.575554 6.24516L0.948242 6.62305ZM0.897461 6.74316L0.366713 6.74227V6.74316H0.897461ZM0 6.74316L-0.530748 6.74302V6.74316H0ZM0.246094 6.0625L-0.145751 5.70452L-0.154233 5.7138L-0.162266 5.72348L0.246094 6.0625ZM0.318359 5.9834L-0.0540099 5.6052L-0.064015 5.61505L-0.0734853 5.62542L0.318359 5.9834ZM6.08398 0.306641L5.71162 -0.0715591L5.71162 -0.071558L6.08398 0.306641ZM6.83203 0L6.83203 -0.530748L6.83184 -0.530748L6.83203 0ZM212.21 0L212.239 -0.529974L212.224 -0.530748H212.21V0ZM201.164 37.0411L201.163 37.5718L201.164 37.0411ZM212.318 0.00585938L212.265 0.533901C212.534 0.561189 212.745 0.789378 212.745 1.06649L213.275 1.06641L213.806 1.06632C213.806 0.239443 213.178 -0.440464 212.372 -0.522182L212.318 0.00585938ZM213.275 1.06641H212.745V30.2979H213.275H213.806V1.06641H213.275ZM213.275 30.2979L212.745 30.2978C212.745 30.4419 212.687 30.5796 212.585 30.6796L212.958 31.0576L213.331 31.4357C213.636 31.135 213.806 30.7246 213.806 30.2979L213.275 30.2979ZM212.958 31.0576L212.586 30.6794L206.819 36.3572L207.191 36.7354L207.564 37.1135L213.33 31.4358L212.958 31.0576ZM207.191 36.7354L206.839 36.3384L206.761 36.4077L207.113 36.8047L207.466 37.2016L207.544 37.1323L207.191 36.7354ZM207.113 36.8047L206.78 36.3918C206.684 36.4689 206.565 36.5112 206.443 36.5112L206.443 37.042L206.443 37.5727C206.811 37.5727 207.165 37.4455 207.447 37.2176L207.113 36.8047ZM206.443 37.042L206.443 36.5112L201.164 36.5103L201.164 37.0411L201.163 37.5718L206.443 37.5727L206.443 37.042ZM201.164 36.1436V36.6743H206.443V36.1436V35.6128H201.164V36.1436ZM206.443 36.1436L206.444 36.6743C206.623 36.6742 206.8 36.6054 206.933 36.4746L206.562 36.0957L206.19 35.7168C206.26 35.6478 206.352 35.6129 206.443 35.6128L206.443 36.1436ZM206.562 36.0957L206.934 36.4739L212.7 30.7962L212.328 30.418L211.956 30.0398L206.189 35.7175L206.562 36.0957ZM212.328 30.418L212.701 30.7953C212.836 30.6619 212.909 30.4817 212.909 30.2983L212.378 30.2979L211.847 30.2974C211.847 30.2039 211.884 30.1108 211.955 30.0406L212.328 30.418ZM212.378 30.2979H212.909V1.06641H212.378H211.847V30.2979H212.378ZM212.378 1.06641L212.909 1.06586C212.908 0.679528 212.595 0.36864 212.211 0.367691L212.21 0.898438L212.209 1.42918C212.01 1.42869 211.847 1.26761 211.847 1.06695L212.378 1.06641ZM212.21 0.898438L212.21 0.36769L6.83203 0.366713L6.83203 0.897461L6.83203 1.42821L212.21 1.42919L212.21 0.898438ZM6.83203 0.897461L6.83081 0.366715C6.64571 0.36714 6.47041 0.441168 6.3415 0.568089L6.71387 0.946289L7.08624 1.32449C7.02018 1.38952 6.93017 1.42798 6.83325 1.42821L6.83203 0.897461ZM6.71387 0.946289L6.3415 0.56809L0.575873 6.24485L0.948242 6.62305L1.32061 7.00125L7.08624 1.32449L6.71387 0.946289ZM0.948242 6.62305L0.575554 6.24516C0.445 6.37392 0.367033 6.55224 0.366714 6.74227L0.897461 6.74316L1.42821 6.74406C1.42804 6.84412 1.38741 6.93536 1.32093 7.00093L0.948242 6.62305ZM0.897461 6.74316H0.366713V30.772H0.897461H1.42821V6.74316H0.897461ZM0 30.772H0.530748V6.74316H0H-0.530748V30.772H0ZM0 6.74316L0.530748 6.74331C0.530781 6.61834 0.574807 6.49746 0.654453 6.40152L0.246094 6.0625L-0.162266 5.72348C-0.398803 6.00839 -0.530648 6.36858 -0.530748 6.74302L0 6.74316ZM0.246094 6.0625L0.637938 6.42048L0.710204 6.34138L0.318359 5.9834L-0.0734853 5.62542L-0.145751 5.70452L0.246094 6.0625ZM0.318359 5.9834L0.690729 6.3616L6.45635 0.684839L6.08398 0.306641L5.71162 -0.071558L-0.0540099 5.6052L0.318359 5.9834ZM6.08398 0.306641L6.45635 0.68484C6.55649 0.586248 6.69178 0.530798 6.83222 0.530748L6.83203 0L6.83184 -0.530748C6.41279 -0.530596 6.01018 -0.36552 5.71162 -0.0715591L6.08398 0.306641ZM6.83203 0V0.530748H212.21V0V-0.530748H6.83203V0ZM212.21 0L212.181 0.529974L212.29 0.535833L212.318 0.00585938L212.347 -0.524115L212.239 -0.529974L212.21 0ZM0.44873 31.2207V30.69C0.494027 30.69 0.530748 30.7267 0.530748 30.772H0H-0.530748C-0.530748 31.3129 -0.0922204 31.7515 0.44873 31.7515V31.2207ZM0.897461 30.772H0.366713C0.366713 30.7267 0.403433 30.69 0.44873 30.69V31.2207V31.7515C0.989682 31.7515 1.42821 31.3129 1.42821 30.772H0.897461ZM200.715 36.5923H201.246C201.246 36.6376 201.209 36.6743 201.164 36.6743V36.1436V35.6128C200.623 35.6128 200.184 36.0514 200.184 36.5923H200.715ZM201.164 37.0411L201.164 36.5103C201.209 36.5104 201.246 36.5471 201.246 36.5923H200.715H200.184C200.184 37.1332 200.623 37.5717 201.163 37.5718L201.164 37.0411Z" fill="url(#paint0_linear_2_3)" mask="url(#path-1-inside-1_2_3)"/>
<defs>
<linearGradient id="paint0_linear_2_3" x1="139.336" y1="47.9172" x2="139.251" y2="-6.68569" gradientUnits="userSpaceOnUse">
<stop offset="0.072983" stop-color="#FFE01A"/>
<stop offset="0.992598" stop-color="#FABA3E"/>
</linearGradient>
</defs>
</svg>
